<?xml version="1.0" encoding="utf-8"?>
<!-- Generator: Adobe Illustrator 26.0.2, SVG Export Plug-In . SVG Version: 6.00 Build 0)  -->
<svg version="1.1" id="Layer_1" xmlns="http://www.w3.org/2000/svg" xmlns:xlink="http://www.w3.org/1999/xlink" x="0px" y="0px"
	 viewBox="0 0 942.2 729.2" style="enable-background:new 0 0 942.2 729.2;" xml:space="preserve">
<g>
	<g>
		<path d="M36,705.7H23.4v21.8H0.1v-82.2h37.6c22.4,0,36.5,11.6,36.5,30.4c0,12.1-5.9,21-16.1,25.9l17.7,25.8H50.9L36,705.7z
			 M36.3,663.7H23.4v24.1h12.9c9.6,0,14.4-4.5,14.4-12C50.7,668.2,45.9,663.7,36.3,663.7z"/>
		<path d="M164.7,709.6v18h-66v-82.2h64.4v18h-41.4v13.9h36.5v17.4h-36.5v15H164.7z"/>
		<path d="M263.5,727.6l-0.2-43.6l-21.1,35.5h-10.3l-21-34.3v42.4h-21.5v-82.2h19.1l28.9,47.4l28.2-47.4h19.1l0.2,82.2H263.5z"/>
		<path d="M308.9,686.5c0-24.7,19.4-42.7,45.7-42.7c26.3,0,45.7,18.1,45.7,42.7c0,24.7-19.4,42.7-45.7,42.7
			C328.2,729.2,308.9,711.1,308.9,686.5z M376.7,686.5c0-14.2-9.7-23.5-22.2-23.5c-12.4,0-22.2,9.3-22.2,23.5
			c0,14.2,9.7,23.5,22.2,23.5C367,709.9,376.7,700.7,376.7,686.5z"/>
		<path d="M424.1,645.4H463c27.2,0,45.9,15.8,45.9,41.1s-18.7,41.1-45.9,41.1h-38.9V645.4z M462.1,709c14,0,23.4-8.3,23.4-22.5
			c0-14.2-9.4-22.5-23.4-22.5h-14.7V709H462.1z"/>
		<path d="M598.8,709.6v18h-66v-82.2h64.4v18h-41.4v13.9h36.5v17.4h-36.5v15H598.8z"/>
		<path d="M623.5,645.4h23.2v63.7h39.2v18.4h-62.5V645.4z"/>
		<path d="M706.8,645.4h23.2v82.2h-23.2V645.4z"/>
		<path d="M836.5,645.4v82.2h-19.1l-36.3-43.8v43.8h-22.8v-82.2h19.1l36.3,43.8v-43.8H836.5z"/>
		<path d="M919.8,684.7h20.5v34c-9.5,6.8-22.5,10.4-34.5,10.4c-26.2,0-45.3-17.7-45.3-42.7c0-25,19.1-42.7,45.8-42.7
			c15.4,0,27.8,5.3,35.9,15l-14.8,13.4c-5.6-6.2-12.1-9.2-20-9.2c-14.1,0-23.5,9.3-23.5,23.5c0,13.9,9.4,23.5,23.2,23.5
			c4.3,0,8.5-0.8,12.6-2.7V684.7z"/>
	</g>
	<g>
		<path d="M448.1,390.4v90.4H130.3v-71.7l158.2-183.9H130.3v-90.4h309.9v71.7L282,390.4H448.1z"/>
		<path d="M642.2,134.9v346H525.6v-258h-59.3v-88H642.2z"/>
		<circle cx="736.2" cy="405.1" r="75.7"/>
	</g>
	<g>
		<path d="M942.2,615.7H0V0h942.2V615.7z M57.3,558.4h827.5v-501H57.3V558.4z"/>
	</g>
</g>
</svg>
