<svg id="Group_275" data-name="Group 275" xmlns="http://www.w3.org/2000/svg" xmlns:xlink="http://www.w3.org/1999/xlink" width="150.939" height="160.781" viewBox="0 0 150.939 160.781">
  <defs>
    <clipPath id="clip-path">
      <rect id="Rectangle_315" data-name="Rectangle 315" width="150.939" height="160.781" fill="none"/>
    </clipPath>
  </defs>
  <g id="Group_274" data-name="Group 274" clip-path="url(#clip-path)">
    <path id="Path_529" data-name="Path 529" d="M22.394,140.4A38.312,38.312,0,0,0,6.376,94.017c.567-.222,1.138-.443,1.706-.658L9.553,86.8q1.546-.282,3.091-.525V76.547l-.844-.859a13.5,13.5,0,0,1-3.778-8.119c-.164-1.681-.346-3.438-.537-5.241-.777.923-2.828,1.214-3.624.315a8.027,8.027,0,0,1-1.6-3.032A60.16,60.16,0,0,1,.022,44.78a3.278,3.278,0,0,1,3.9-3.377,95.671,95.671,0,0,1-.145-27.97C6.97,11.1,9.543,9.8,13.583,9.651l3.66-6.142C30.386-3.429,51.129.283,62.9,11.541c1.717,7.387,1.839,17.569.288,29.869a3.273,3.273,0,0,1,3.939,3.368,60.159,60.159,0,0,1-2.243,14.832,7.984,7.984,0,0,1-1.6,3.032c-.8.9-2.844.607-3.624-.315-.191,1.8-.374,3.563-.537,5.248a13.482,13.482,0,0,1-3.772,8.11l-.85.868V86.28q1.546.241,3.091.525l1.5,6.67c11.812,4.588,23.709,10.4,34.586,12.292a9.858,9.858,0,0,1,8.021,8.4,193.083,193.083,0,0,1,1.818,26.236Z" transform="translate(47.414 -0.003)" fill="#fff"/>
    <path id="Path_530" data-name="Path 530" d="M625.028,731.9a33.969,33.969,0,1,1,35.143,35.142c-.393.015-.786.021-1.182.021s-.806-.007-1.206-.021a33.969,33.969,0,0,1-32.755-32.754c-.015-.393-.021-.786-.021-1.182s.007-.806.021-1.206m41.618,14.191-4.21-11.641H674.71v-2.736H662.437l4.21-11.639c-5.973,5.208-15.612,10.127-23.381,13.006,7.769,2.882,17.406,7.8,23.381,13.009" transform="translate(-625.007 -606.277)" fill="#fff"/>
  </g>
</svg>
