<?xml version="1.0" encoding="utf-8"?>
<!-- Generator: Adobe Illustrator 26.0.2, SVG Export Plug-In . SVG Version: 6.00 Build 0)  -->
<svg version="1.1" id="Layer_1" xmlns="http://www.w3.org/2000/svg" xmlns:xlink="http://www.w3.org/1999/xlink" x="0px" y="0px"
	 viewBox="0 0 155.6 158.8" style="enable-background:new 0 0 155.6 158.8;" xml:space="preserve">
<style type="text/css">
	.st0{fill:#FFFFFF;}
</style>
<g>
	<g>
		<path class="st0" d="M155.6,61.2v95.6c0,1.1-0.9,2-2,2H2c-1.1,0-2-0.9-2-2V61.2c0-0.1,0-0.1,0-0.2c0-0.1,0-0.1,0-0.2
			c0,0,0-0.1,0-0.1c0,0,0-0.1,0-0.1c0-0.1,0-0.1,0.1-0.2c0,0,0-0.1,0.1-0.1c0,0,0-0.1,0.1-0.1c0,0,0-0.1,0-0.1c0,0,0.1-0.1,0.1-0.1
			c0,0,0,0,0,0c0-0.1,0.1-0.1,0.1-0.2c0.1-0.1,0.1-0.1,0.2-0.2l0,0c0.3-0.3,0.8-0.4,1.2-0.4c1.1,0,2,0.9,2,2v93.6h147.6V61.2
			c0-1.1,0.9-2,2-2c0.4,0,0.9,0.2,1.2,0.4l0,0c0.1,0,0.1,0.1,0.2,0.2c0,0.1,0.1,0.1,0.1,0.2c0,0,0,0,0,0c0,0,0.1,0.1,0.1,0.2
			c0,0,0,0,0,0c0,0.1,0.1,0.1,0.1,0.2c0,0,0,0,0,0c0,0.1,0.1,0.1,0.1,0.2c0,0,0,0,0,0c0,0,0,0.1,0,0.1c0,0.1,0,0.2,0,0.3
			C155.6,61.1,155.6,61.1,155.6,61.2z"/>
	</g>
	<g>
		<path class="st0" d="M95.5,16.6c-0.4,0-0.9-0.1-1.2-0.4L80,4.8c-1.3-1-3.1-1-4.4,0L61.4,16.2c-0.9,0.7-2.1,0.6-2.8-0.3
			c-0.7-0.9-0.5-2.1,0.3-2.8L73.1,1.7c2.8-2.2,6.6-2.2,9.4,0l14.2,11.4c0.9,0.7,1,1.9,0.3,2.8C96.6,16.4,96.1,16.6,95.5,16.6z"/>
	</g>
	<g>
		<path class="st0" d="M155.6,61.2c0,0.4-0.1,0.9-0.4,1.2c-0.4,0.5-1,0.7-1.6,0.7c-0.4,0-0.9-0.1-1.2-0.4l-0.7-0.6l-20.3-16.2
			l-3.2-2.6c-0.5-0.4-0.7-1-0.7-1.6c0-0.4,0.1-0.9,0.4-1.2c0.7-0.9,1.9-1,2.8-0.3l0.7,0.6l23.5,18.8l0,0c0.1,0,0.1,0.1,0.2,0.2
			c0,0.1,0.1,0.1,0.1,0.2c0,0,0,0,0,0c0,0,0.1,0.1,0.1,0.2c0,0,0,0,0,0c0,0.1,0.1,0.1,0.1,0.2c0,0,0,0,0,0c0,0.1,0.1,0.1,0.1,0.2
			c0,0,0,0,0,0c0,0,0,0.1,0,0.1c0,0.1,0,0.2,0,0.3C155.6,61.1,155.6,61.1,155.6,61.2z"/>
	</g>
	<g>
		<path class="st0" d="M27.8,42.1c0,0.6-0.3,1.2-0.7,1.6l-3.2,2.6L4,62.2l-0.7,0.6c-0.4,0.3-0.8,0.4-1.2,0.4c-0.6,0-1.2-0.3-1.6-0.7
			C0.1,62.1,0,61.6,0,61.2c0-0.1,0-0.1,0-0.2c0-0.1,0-0.1,0-0.2c0,0,0-0.1,0-0.1c0,0,0-0.1,0-0.1c0-0.1,0-0.1,0.1-0.2
			c0,0,0-0.1,0.1-0.1c0,0,0-0.1,0.1-0.1c0,0,0-0.1,0-0.1c0,0,0.1-0.1,0.1-0.1c0,0,0,0,0,0c0-0.1,0.1-0.1,0.1-0.2
			c0.1-0.1,0.1-0.1,0.2-0.2l0,0l23.1-18.5l0.7-0.6c0.9-0.7,2.1-0.6,2.8,0.3C27.7,41.2,27.8,41.7,27.8,42.1z"/>
	</g>
	<g>
		<path class="st0" d="M131.4,14.6v63.2l-4,2.9V16.6H27.8V81l-4-3V14.6c0-1.1,0.9-2,2-2h103.5C130.5,12.6,131.4,13.5,131.4,14.6z"/>
	</g>
	<g>
		<path class="st0" d="M62.4,29.5H39c-1.1,0-2,0.9-2,2v23.4c0,1.1,0.9,2,2,2h23.4c1.1,0,2-0.9,2-2V31.5
			C64.4,30.4,63.5,29.5,62.4,29.5z M60.4,52.9H41V33.5h19.4V52.9z"/>
	</g>
	<g>
		<path class="st0" d="M62.4,68H39c-1.1,0-2,0.9-2,2v17.9l4,3V72h19.4v19.4H41.7l5.3,4h15.4c1.1,0,2-0.9,2-2V70
			C64.4,68.9,63.5,68,62.4,68z"/>
		<path class="st0" d="M151.6,62.2v92.7H4V62.2l19.9-15.9v31.7L8.2,66.2c-0.9-0.7-2.1-0.5-2.8,0.4c-0.7,0.9-0.5,2.1,0.4,2.8L37,92.9
			l3.4,2.5l35.1,26.5c0.4,0.3,0.8,0.4,1.2,0.4c0.4,0,0.8-0.1,1.2-0.4l52.6-38.6l0,0c0.1,0,0.1-0.1,0.2-0.1l0,0l19-13.9
			c0.9-0.6,1.1-1.9,0.4-2.8c-0.6-0.9-1.9-1.1-2.8-0.4l-15.9,11.6V45.9L151.6,62.2z"/>
	</g>
	<g>
		<path class="st0" d="M116.9,36.2H73.7c-1.1,0-2-0.9-2-2s0.9-2,2-2h43.2c1.1,0,2,0.9,2,2S118,36.2,116.9,36.2z"/>
	</g>
	<g>
		<path class="st0" d="M116.9,55.8H73.7c-1.1,0-2-0.9-2-2c0-1.1,0.9-2,2-2h43.2c1.1,0,2,0.9,2,2C118.9,55,118,55.8,116.9,55.8z"/>
	</g>
	<g>
		<path class="st0" d="M116.9,74H73.7c-1.1,0-2-0.9-2-2s0.9-2,2-2h43.2c1.1,0,2,0.9,2,2S118,74,116.9,74z"/>
	</g>
	<g>
		<path class="st0" d="M117.1,88.2l-5.4,4h-38c-1.1,0-2-0.9-2-2c0-1.1,0.9-2,2-2h43.2C117,88.2,117.1,88.2,117.1,88.2z"/>
	</g>
</g>
</svg>
