<svg id="Layer_1" enable-background="new 0 0 490.112 490.112" viewBox="0 0 490.112 490.112" xmlns="http://www.w3.org/2000/svg"><g><g><g><path d="m134.059 18.219c-33.941 14.848-63.445 37.888-86.165 66.56h56.704c7.85-25.28 17.749-47.83 29.461-66.56z"/><path d="m325.952 106.112h-91.819v106.667h106.389c-.853-38.23-5.973-74.56-14.57-106.667z"/><path d="m85.056 234.112h-85.056c1.856 38.997 13.632 75.349 32.981 106.667h65.643c-8.064-32.278-12.8-68.267-13.568-106.667z"/><path d="m98.624 106.112h-65.621c-19.371 31.317-31.168 67.669-33.003 106.667h85.056c.768-38.379 5.504-74.39 13.568-106.667z"/><path d="m361.835 212.779h85.056c-1.856-38.997-13.653-75.349-33.003-106.667h-65.621c8.064 32.277 12.842 68.288 13.568 106.667z"/><path d="m276.821 6.165c-13.781-3.392-28.032-5.461-42.688-6.144v84.779h85.376c-11.008-32.789-25.685-59.925-42.688-78.635z"/><path d="m399.04 84.779c-22.72-28.693-52.224-51.733-86.165-66.581 11.691 18.752 21.589 41.301 29.461 66.581z"/><path d="m446.059 422.997-32.021-8-1.344-5.355c8.32-9.173 14.208-20.885 16.661-33.024 5.696-2.944 9.835-8.533 10.667-15.253l2.325-18.56c.704-5.632-1.024-11.307-4.757-15.552-1.152-1.323-2.475-2.475-3.904-3.435l.555-11.307 1.963-1.963c5.483-5.845 12.928-18.325 1.152-36.331-5.589-8.576-17.109-18.773-40.171-18.773-6.784 0-22.123 0-37.013 9.344-43.904 1.536-49.067 25.195-49.067 43.072 0 3.52.619 10.112 1.237 15.616-1.579 1.003-3.029 2.219-4.288 3.648-3.776 4.288-5.547 9.984-4.843 15.68l2.325 18.56c.875 6.955 5.291 12.715 11.797 15.552 2.411 11.627 7.979 22.891 15.765 31.829l-1.557 6.272-32.021 8c-25.963 6.464-44.075 29.675-44.075 56.427 0 5.888 4.779 10.667 10.667 10.667h213.333c5.888 0 10.667-4.8 10.667-10.688 0-26.708-18.112-49.919-44.053-56.426z"/><path d="m268.459 309.568c0-.597-.021-1.173-.021-1.707 0-14.208 3.733-53.696 41.109-73.749h-75.435v106.667h26.453c-.064-10.88 2.539-21.675 7.894-31.211z"/><path d="m47.787 362.112c22.741 28.736 52.309 51.819 86.315 66.667-11.712-18.752-21.611-41.344-29.504-66.667z"/><path d="m263.211 366.677-.555-4.565h-28.523v56.405c9.6-12.587 21.696-23.147 36.053-30.059-3.626-6.719-6.015-14.058-6.975-21.781z"/><path d="m127.403 84.779h85.376v-84.779c-14.613.683-28.885 2.731-42.667 6.123-17.003 18.752-31.68 45.888-42.709 78.656z"/><path d="m106.389 212.779h106.389v-106.667h-91.818c-8.619 32.107-13.739 68.437-14.571 106.667z"/><path d="m170.219 440.896c13.739 3.371 27.968 5.397 42.56 6.101v-84.885h-85.376c11.05 32.896 25.77 60.053 42.816 78.784z"/><path d="m120.96 340.779h91.819v-106.667h-106.39c.832 38.229 5.952 74.56 14.571 106.667z"/></g></g></g><g/><g/><g/><g/><g/><g/><g/><g/><g/><g/><g/><g/><g/><g/><g/></svg>